<svg xmlns="http://www.w3.org/2000/svg" width="1280" height="820" viewBox="0 0 1280 820" role="img" aria-label="Dahe Todo v0.5.0 desktop preview">
  <rect width="1280" height="820" fill="#eee8dc"/>
  <rect x="48" y="48" width="1184" height="724" rx="22" fill="#fffdf8" stroke="#d6ccba"/>

  <rect x="72" y="74" width="1136" height="86" rx="14" fill="#1c242d"/>
  <text x="96" y="111" fill="#dfeee7" font-family="Segoe UI, sans-serif" font-size="18">Desktop app · v0.5.0-achievements</text>
  <text x="96" y="143" fill="#ffffff" font-family="Segoe UI, sans-serif" font-size="32" font-weight="700">Dahe Todo</text>
  <rect x="944" y="94" width="82" height="42" rx="10" fill="#fffdf8"/>
  <text x="969" y="121" fill="#1c242d" font-family="Segoe UI, sans-serif" font-size="16">Settings</text>
  <rect x="1040" y="94" width="124" height="42" rx="10" fill="#dfeee7"/>
  <text x="1061" y="121" fill="#176f54" font-family="Segoe UI, sans-serif" font-size="16">Data folder</text>

  <rect x="72" y="184" width="1136" height="128" rx="16" fill="#f7f4eb" stroke="#d9d3c7"/>
  <text x="96" y="220" fill="#1c242d" font-family="Segoe UI, sans-serif" font-size="22" font-weight="700">Quick capture</text>
  <text x="96" y="249" fill="#757b80" font-family="Segoe UI, sans-serif" font-size="15">Write first. Do not rely on memory.</text>
  <rect x="360" y="200" width="824" height="42" rx="10" fill="#eff7f3" stroke="#d9d3c7"/>
  <text x="382" y="226" fill="#0f543f" font-family="Segoe UI, sans-serif" font-size="15" font-weight="700">Weekly achievements 4/8 · Pomodoros 6 · Focus 0.6h · Done 3</text>
  <rect x="360" y="254" width="300" height="40" rx="10" fill="#ffffff" stroke="#d9d3c7"/>
  <text x="382" y="279" fill="#707985" font-family="Segoe UI, sans-serif" font-size="15">Task title</text>
  <rect x="678" y="254" width="280" height="40" rx="10" fill="#ffffff" stroke="#d9d3c7"/>
  <text x="700" y="279" fill="#707985" font-family="Segoe UI, sans-serif" font-size="15">Notes, people, next step</text>
  <rect x="976" y="254" width="100" height="40" rx="10" fill="#ffffff" stroke="#d9d3c7"/>
  <text x="999" y="279" fill="#1c242d" font-family="Segoe UI, sans-serif" font-size="15">Priority</text>
  <rect x="1092" y="254" width="92" height="40" rx="10" fill="#176f54"/>
  <text x="1122" y="279" fill="#ffffff" font-family="Segoe UI, sans-serif" font-size="15" font-weight="700">Add</text>

  <rect x="72" y="336" width="212" height="394" rx="16" fill="#fffdf8" stroke="#d9d3c7"/>
  <rect x="96" y="362" width="72" height="72" rx="12" fill="#f8f5ed" stroke="#d9d3c7"/>
  <text x="121" y="396" fill="#1c242d" font-family="Segoe UI, sans-serif" font-size="30" font-weight="700">7</text>
  <text x="116" y="420" fill="#757b80" font-family="Segoe UI, sans-serif" font-size="15">Open</text>
  <rect x="184" y="362" width="72" height="72" rx="12" fill="#f8f5ed" stroke="#d9d3c7"/>
  <text x="206" y="396" fill="#1c242d" font-family="Segoe UI, sans-serif" font-size="30" font-weight="700">19</text>
  <text x="196" y="420" fill="#757b80" font-family="Segoe UI, sans-serif" font-size="15">Done</text>
  <rect x="96" y="460" width="160" height="44" rx="10" fill="#1c242d"/>
  <text x="154" y="488" fill="#ffffff" font-family="Segoe UI, sans-serif" font-size="16">Todo</text>
  <rect x="96" y="516" width="160" height="44" rx="10" fill="#ffffff" stroke="#d9d3c7"/>
  <text x="151" y="544" fill="#46515d" font-family="Segoe UI, sans-serif" font-size="16">History</text>
  <rect x="96" y="572" width="160" height="44" rx="10" fill="#ffffff" stroke="#d9d3c7"/>
  <text x="151" y="600" fill="#46515d" font-family="Segoe UI, sans-serif" font-size="16">Report</text>

  <rect x="308" y="336" width="394" height="394" rx="16" fill="#fffdf8" stroke="#d9d3c7"/>
  <text x="336" y="378" fill="#1c242d" font-family="Segoe UI, sans-serif" font-size="24" font-weight="700">Todo</text>
  <text x="336" y="404" fill="#757b80" font-family="Segoe UI, sans-serif" font-size="15">7 items · Important urgent</text>
  <rect x="336" y="436" width="338" height="86" rx="12" fill="#ffffff" stroke="#176f54"/>
  <rect x="336" y="436" width="5" height="86" rx="3" fill="#176f54"/>
  <text x="360" y="469" fill="#1c242d" font-family="Segoe UI, sans-serif" font-size="18" font-weight="700">Confirm sample schedule</text>
  <text x="360" y="499" fill="#757b80" font-family="Segoe UI, sans-serif" font-size="14">Created 04/22 11:21 · Example</text>
  <rect x="336" y="540" width="338" height="78" rx="12" fill="#ffffff" stroke="#d9d3c7"/>
  <text x="360" y="571" fill="#1c242d" font-family="Segoe UI, sans-serif" font-size="18" font-weight="700">Prepare weekly notes</text>
  <text x="360" y="600" fill="#757b80" font-family="Segoe UI, sans-serif" font-size="14">1 Pomodoro · Achievement ready</text>

  <rect x="726" y="336" width="482" height="394" rx="16" fill="#fffdf8" stroke="#d9d3c7"/>
  <rect x="754" y="366" width="78" height="28" rx="14" fill="#dfeee7"/>
  <text x="772" y="385" fill="#0f543f" font-family="Segoe UI, sans-serif" font-size="14" font-weight="700">Open</text>
  <text x="754" y="436" fill="#1c242d" font-family="Segoe UI, sans-serif" font-size="28" font-weight="700">Confirm sample schedule</text>
  <text x="754" y="476" fill="#46515d" font-family="Segoe UI, sans-serif" font-size="17">Details, focus sessions, comments, and report notes.</text>
  <line x1="754" y1="508" x2="1180" y2="508" stroke="#d9d3c7"/>
  <text x="754" y="554" fill="#757b80" font-family="Segoe UI, sans-serif" font-size="15">Focus</text>
  <text x="836" y="554" fill="#1c242d" font-family="Segoe UI, sans-serif" font-size="15">1 Pomodoro · 25 minutes</text>
  <text x="754" y="594" fill="#757b80" font-family="Segoe UI, sans-serif" font-size="15">Priority</text>
  <text x="836" y="594" fill="#a86517" font-family="Segoe UI, sans-serif" font-size="15">Important urgent</text>
  <rect x="754" y="638" width="184" height="44" rx="10" fill="#176f54"/>
  <text x="826" y="666" fill="#ffffff" font-family="Segoe UI, sans-serif" font-size="16" font-weight="700">Finish</text>
</svg>
