<svg xmlns="http://www.w3.org/2000/svg" width="1280" height="820" viewBox="0 0 1280 820" role="img" aria-label="大何的待办事项桌面端界面预览">
  <rect width="1280" height="820" fill="#eee8dc"/>
  <rect x="48" y="48" width="1184" height="724" rx="22" fill="#fffdf8" stroke="#d6ccba"/>

  <rect x="72" y="74" width="1136" height="86" rx="14" fill="#1c242d"/>
  <text x="96" y="111" fill="#dfeee7" font-family="Microsoft YaHei, Segoe UI, sans-serif" font-size="18">桌面端 · v0.5.0-achievements</text>
  <text x="96" y="143" fill="#ffffff" font-family="Microsoft YaHei, Segoe UI, sans-serif" font-size="32" font-weight="700">大何的待办事项</text>
  <rect x="944" y="94" width="82" height="42" rx="10" fill="#fffdf8"/>
  <text x="969" y="121" fill="#1c242d" font-family="Microsoft YaHei, Segoe UI, sans-serif" font-size="16">设置</text>
  <rect x="1040" y="94" width="124" height="42" rx="10" fill="#dfeee7"/>
  <text x="1061" y="121" fill="#176f54" font-family="Microsoft YaHei, Segoe UI, sans-serif" font-size="16">数据文件夹</text>

  <rect x="72" y="184" width="1136" height="128" rx="16" fill="#f7f4eb" stroke="#d9d3c7"/>
  <text x="96" y="220" fill="#1c242d" font-family="Microsoft YaHei, Segoe UI, sans-serif" font-size="22" font-weight="700">快速收集</text>
  <text x="96" y="249" fill="#757b80" font-family="Microsoft YaHei, Segoe UI, sans-serif" font-size="15">先写下来，别靠脑子硬记</text>
  <rect x="360" y="200" width="824" height="42" rx="10" fill="#eff7f3" stroke="#d9d3c7"/>
  <text x="382" y="226" fill="#0f543f" font-family="Microsoft YaHei, Segoe UI, sans-serif" font-size="15" font-weight="700">本周成就 4/8 · 番茄 6 · 专注 0.6 小时 · 完成 3</text>
  <rect x="360" y="254" width="300" height="40" rx="10" fill="#ffffff" stroke="#d9d3c7"/>
  <text x="382" y="279" fill="#707985" font-family="Microsoft YaHei, Segoe UI, sans-serif" font-size="15">事情</text>
  <rect x="678" y="254" width="280" height="40" rx="10" fill="#ffffff" stroke="#d9d3c7"/>
  <text x="700" y="279" fill="#707985" font-family="Microsoft YaHei, Segoe UI, sans-serif" font-size="15">地点、对象、下一步</text>
  <rect x="976" y="254" width="100" height="40" rx="10" fill="#ffffff" stroke="#d9d3c7"/>
  <text x="999" y="279" fill="#1c242d" font-family="Microsoft YaHei, Segoe UI, sans-serif" font-size="15">优先级</text>
  <rect x="1092" y="254" width="92" height="40" rx="10" fill="#176f54"/>
  <text x="1122" y="279" fill="#ffffff" font-family="Microsoft YaHei, Segoe UI, sans-serif" font-size="15" font-weight="700">添加</text>

  <rect x="72" y="314" width="212" height="416" rx="16" fill="#fffdf8" stroke="#d9d3c7"/>
  <rect x="96" y="340" width="72" height="72" rx="12" fill="#f8f5ed" stroke="#d9d3c7"/>
  <text x="121" y="374" fill="#1c242d" font-family="Segoe UI, sans-serif" font-size="30" font-weight="700">7</text>
  <text x="116" y="398" fill="#757b80" font-family="Microsoft YaHei, Segoe UI, sans-serif" font-size="15">待办</text>
  <rect x="184" y="340" width="72" height="72" rx="12" fill="#f8f5ed" stroke="#d9d3c7"/>
  <text x="206" y="374" fill="#1c242d" font-family="Segoe UI, sans-serif" font-size="30" font-weight="700">19</text>
  <text x="196" y="398" fill="#757b80" font-family="Microsoft YaHei, Segoe UI, sans-serif" font-size="15">完成</text>
  <rect x="96" y="438" width="160" height="44" rx="10" fill="#1c242d"/>
  <text x="154" y="466" fill="#ffffff" font-family="Microsoft YaHei, Segoe UI, sans-serif" font-size="16">待办</text>
  <rect x="96" y="494" width="160" height="44" rx="10" fill="#ffffff" stroke="#d9d3c7"/>
  <text x="151" y="522" fill="#46515d" font-family="Microsoft YaHei, Segoe UI, sans-serif" font-size="16">历史</text>
  <rect x="96" y="550" width="160" height="44" rx="10" fill="#ffffff" stroke="#d9d3c7"/>
  <text x="151" y="578" fill="#46515d" font-family="Microsoft YaHei, Segoe UI, sans-serif" font-size="16">周报</text>

  <rect x="308" y="314" width="394" height="416" rx="16" fill="#fffdf8" stroke="#d9d3c7"/>
  <text x="336" y="356" fill="#1c242d" font-family="Microsoft YaHei, Segoe UI, sans-serif" font-size="24" font-weight="700">待办</text>
  <text x="336" y="382" fill="#757b80" font-family="Microsoft YaHei, Segoe UI, sans-serif" font-size="15">7 条 · 重要紧急</text>

  <g>
    <rect x="336" y="414" width="338" height="86" rx="12" fill="#ffffff" stroke="#176f54"/>
    <rect x="336" y="414" width="5" height="86" rx="3" fill="#176f54"/>
    <text x="360" y="447" fill="#1c242d" font-family="Microsoft YaHei, Segoe UI, sans-serif" font-size="18" font-weight="700">确认示例日程安排</text>
    <text x="360" y="477" fill="#757b80" font-family="Microsoft YaHei, Segoe UI, sans-serif" font-size="14">创建 04/22 11:21 · 示例</text>
  </g>
  <g>
    <rect x="336" y="518" width="338" height="78" rx="12" fill="#ffffff" stroke="#d9d3c7"/>
    <text x="360" y="549" fill="#1c242d" font-family="Microsoft YaHei, Segoe UI, sans-serif" font-size="18" font-weight="700">整理占位需求清单</text>
    <text x="360" y="578" fill="#757b80" font-family="Microsoft YaHei, Segoe UI, sans-serif" font-size="14">创建 04/22 13:05 · 示例</text>
  </g>
  <g>
    <rect x="336" y="614" width="338" height="78" rx="12" fill="#ffffff" stroke="#d9d3c7"/>
    <text x="360" y="645" fill="#1c242d" font-family="Microsoft YaHei, Segoe UI, sans-serif" font-size="18" font-weight="700">准备周报素材</text>
    <text x="360" y="674" fill="#757b80" font-family="Microsoft YaHei, Segoe UI, sans-serif" font-size="14">创建 04/22 15:40 · 示例</text>
  </g>

  <rect x="726" y="314" width="482" height="416" rx="16" fill="#fffdf8" stroke="#d9d3c7"/>
  <rect x="754" y="344" width="78" height="28" rx="14" fill="#dfeee7"/>
  <text x="772" y="363" fill="#0f543f" font-family="Microsoft YaHei, Segoe UI, sans-serif" font-size="14" font-weight="700">待办中</text>
  <text x="754" y="414" fill="#1c242d" font-family="Microsoft YaHei, Segoe UI, sans-serif" font-size="28" font-weight="700">确认示例日程安排</text>
  <text x="754" y="454" fill="#46515d" font-family="Microsoft YaHei, Segoe UI, sans-serif" font-size="17">右侧显示详情、时间、分组和可追加评论。</text>
  <line x1="754" y1="486" x2="1180" y2="486" stroke="#d9d3c7"/>
  <text x="754" y="532" fill="#757b80" font-family="Microsoft YaHei, Segoe UI, sans-serif" font-size="15">创建</text>
  <text x="836" y="532" fill="#1c242d" font-family="Microsoft YaHei, Segoe UI, sans-serif" font-size="15">04/22 11:21</text>
  <text x="754" y="572" fill="#757b80" font-family="Microsoft YaHei, Segoe UI, sans-serif" font-size="15">优先级</text>
  <text x="836" y="572" fill="#a86517" font-family="Microsoft YaHei, Segoe UI, sans-serif" font-size="15">重要紧急</text>
  <rect x="754" y="616" width="184" height="44" rx="10" fill="#176f54"/>
  <text x="826" y="644" fill="#ffffff" font-family="Microsoft YaHei, Segoe UI, sans-serif" font-size="16" font-weight="700">完成</text>
</svg>
